<svg xmlns="http://www.w3.org/2000/svg" viewBox="0 0 498.93 270.73"><path d="M108.05 135.28c0 74.95 60.69 135.46 135.82 135.46s135.64-60.51 135.64-135.46S318.82 0 243.87 0 108.05 60.51 108.05 135.28z" fill="#f2f2f2"></path><path d="M340.44 126.9c0 37.43-12.24 63.5-29.74 63.5-9.97 0-15.74-6.65-15.74-18.37 0-14.87 4.72-28.16 4.72-39.53 0-13.99-9.62-20.82-34.46-24.49-17.32-2.62-23.96-7.35-23.96-16.97 0-6.3 2.27-9.8 6.12-9.8 4.37 0 6.82 8.05 6.82 22.04 0 54.75-16.79 92.53-40.93 92.53-15.92 0-25.01-17.84-25.01-48.98 0-10.32 2.27-37.26 7.52-75.39.35-3.15-1.57-5.77-4.37-6.12-2.97-.35-5.42 1.75-5.95 4.9-5.42 39.01-7.7 66.3-7.7 76.62 0 37.26 12.94 58.6 35.51 58.6 30.26 0 51.43-41.81 51.43-102.15 0-20.12-6.3-31.66-17.32-31.66-9.62 0-16.44 8.05-16.44 19.42 0 13.64 9.8 22.91 26.76 25.54 24.14 3.85 31.49 7.52 31.49 15.92 0 13.12-4.72 26.41-4.72 39.53 0 17.67 9.62 27.99 26.24 27.99 23.26 0 39.36-29.91 39.36-72.94 0-3.15-1.4-5.42-4.37-5.42s-5.25 2.27-5.25 5.25zm-130.5-27.81h-44.43c-3.32 0-5.77 2.1-5.77 4.9 0 2.62 2.45 4.72 5.77 4.72h44.43c3.32 0 5.77-2.1 5.77-4.72 0-2.8-2.45-4.9-5.77-4.9zm161.63 79.24c-13.47 0-20.64-11.54-20.64-30.09v-45.3c0-3.32-2.1-5.77-5.07-5.77-3.15 0-5.42 2.45-5.42 5.77v45.3c0 24.49 11.19 39.71 31.14 39.71 12.24 0 25.71-9.1 31.49-21.34l-2.1-3.67v19.07c0 3.5 2.1 5.95 5.25 5.95s5.25-2.45 5.25-5.95v-78.89c0-3.5-2.1-5.95-5.25-5.95s-5.25 2.45-5.25 5.95v49.85c-5.42 14.52-18.02 25.36-29.39 25.36zm-256.26 9.62c39.18 0 69.97-33.58 75.39-81.86.35-2.97-1.75-5.25-4.72-5.25-3.15 0-4.72 2.27-5.07 5.42-4.72 42.51-31.66 72.07-65.6 72.07-21.69 0-36.91-14.34-36.91-35.16s12.59-36.38 30.79-36.38c13.47 0 23.26 7.7 23.26 18.19 0 11.19-7.52 16.44-23.26 16.44-11.19 0-24.14-.7-35.33-1.75v9.62c11.19 1.05 24.14 1.75 35.33 1.75 21.34 0 33.76-9.45 33.76-26.06s-14.17-27.81-33.76-27.81c-24.31 0-41.28 18.89-41.28 46s19.42 44.78 47.4 44.78zM67.69 182c0-2.97-2.45-4.9-5.95-4.9H10.85v-73.99c0-3.5-2.1-5.95-5.42-5.95S.01 99.61.01 103.11v78.01c0 3.5 2.45 5.95 5.95 5.95h55.8c3.5 0 5.95-1.92 5.95-5.07zm396.78 5.95c20.29 0 34.46-11.02 34.46-26.94 0-14.52-9.1-21.34-32.71-25.54-18.89-3.32-26.06-7.52-26.06-15.22s8.57-13.47 20.99-13.47c7 0 14.69 1.75 20.82 5.07 3.32 1.75 6.12 1.22 7.52-1.22 1.57-2.8.52-5.25-2.62-7-7.35-4.37-16.79-6.47-25.71-6.47-18.54 0-31.49 9.45-31.49 23.09s8.75 20.12 32.01 24.14c19.42 3.32 26.76 7.87 26.76 16.62 0 10.15-9.8 17.32-23.96 17.32-8.92 0-18.72-3.15-25.71-8.75-2.62-2.1-5.77-2.1-7.7 0-2.1 2.45-1.57 5.77 1.22 8.05 7.87 6.47 19.94 10.32 32.19 10.32z" fill="#020202"></path></svg>